<mxfile host="app.diagrams.net" modified="2024-03-18T06:59:43.726Z" agent="Mozilla/5.0 (Windows NT 10.0; Win64; x64) AppleWebKit/537.36 (KHTML, like Gecko) Chrome/99.0.4844.74 Safari/537.36" version="24.0.7" etag="E_qZbtVsYjzUKR9eITjL" type="github">
  <diagram name="第 1 页" id="zTki0Hj1yreBGgP6_O2p">
    <mxGraphModel>
      <root>
        <mxCell id="0" />
        <mxCell id="1" parent="0" />
      </root>
    </mxGraphModel>
  </diagram>
</mxfile>
